:SAMPLES-PER-SECOND 30
:FRAME-RANGE 1-3535
:FULLY-SPECIFIED
:DEGREES
1878
root  12.47 48.0221 -14.2807 -150.124 -73.1391 160.571
RightUpLeg  -13.8767 -14.9441 -7.99618
RightLeg  56.564 -2.35672 -4.28543
RightFoot  18.9301 -3.52201 13.4603
RightToes  1.22775e-009 1.2921e-014 -6.02303e-014
Spine  2.69865 -3.71631 -3.89698
Spine1  -6.58156 -5.23254 12.0138
HEad  5.89569 17.0138 -5.15505
LeftShoulder1  -0.0452723 -7.02766 10.1508
LeftArm  -91.0494 -69.9474 5.14424
LeftForeArm  15.8238 -12.3486 -1.87713
LeftHand  -0.152995 -0.929215 2.92152
RightShoulder  -1.37733 1.93148 -38.3536
RightArm  -106.434 27.9768 -26.1374
RightForeArm  16.7906 32.3912 6.19389
RightHand  -0.24459 4.11542 -3.25884
LeftUpLeg  -7.11926 24.0643 4.46217
LeftLeg  33.4568 -15.4193 -10.386
LeftFoot  5.06425 3.70769 -25.5513
LeftToes  2.52163e-011 5.65494e-011 -1.09494e-012
1879
root  11.8303 48.6805 -16.1577 -153.535 -72.0393 164.242
RightUpLeg  -19.3728 -11.8764 -10.7104
RightLeg  73.6761 -0.694412 -3.76189
RightFoot  15.7454 -2.13525 9.30251
RightToes  1.22775e-009 1.2921e-014 -6.02303e-014
Spine  1.98122 -2.10982 -1.55469
Spine1  -5.05161 -3.95809 11.1151
HEad  9.03422 10.9822 -4.83223
LeftShoulder1  -0.00374356 -6.767 9.69955
LeftArm  -81.4797 -70.7556 -4.66072
LeftForeArm  14.7945 -7.69733 -1.55489
LeftHand  -0.135918 -0.844858 2.63317
RightShoulder  -1.97031 5.238 -35.2266
RightArm  -107.722 28.1393 -25.5324
RightForeArm  14.2807 33.783 6.70042
RightHand  -0.267254 4.5513 -3.4068
LeftUpLeg  -9.38272 23.537 -0.87579
LeftLeg  30.8425 -13.68 -8.33995
LeftFoot  3.99972 3.31444 -24.4556
LeftToes  2.52163e-011 5.65494e-011 -1.09494e-012
1880
root  11.4095 49.0615 -18.0723 -158.079 -70.6381 168.863
RightUpLeg  -24.3713 -10.1364 -13.6899
RightLeg  86.7222 0.162542 -5.52974
RightFoot  9.09963 -1.66758 9.57749
RightToes  1.22775e-009 1.2921e-014 -6.02303e-014
Spine  2.73571 -0.61378 -0.00657003
Spine1  -4.0346 -2.87682 10.6651
HEad  10.5774 6.64017 -4.89228
LeftShoulder1  -0.00512325 -6.71839 9.71523
LeftArm  -64.3488 -71.2388 -20.2988
LeftForeArm  16.3286 -4.55637 -3.58651
LeftHand  -0.141171 -0.691934 2.7855
RightShoulder  -2.57108 10.4968 -30.5631
RightArm  -100.776 29.5978 -23.8067
RightForeArm  18.4165 33.472 6.37524
RightHand  -0.292448 4.11872 -3.84156
LeftUpLeg  -12.3669 27.3921 -5.1197
LeftLeg  28.0697 -10.9893 -5.94906
LeftFoot  4.28803 3.51535 -25.426
LeftToes  2.52163e-011 5.65494e-011 -1.09494e-012
1881
root  11.0925 49.0761 -19.9747 -163.107 -69.7734 173.799
RightUpLeg  -29.5689 -10.1803 -16.6032
RightLeg  96.7469 1.64412 -8.58226
RightFoot  4.84969 -1.07207 7.75968
RightToes  1.22775e-009 1.2921e-014 -6.02303e-014
Spine  4.25277 -0.218968 1.73531
Spine1  -3.0291 -2.61736 10.553
HEad  10.8069 3.05673 -5.08764
LeftShoulder1  0.103062 -7.33084 8.56676
LeftArm  -49.1373 -71.0453 -32.7184
LeftForeArm  19.9522 -1.64049 -5.75625
LeftHand  -0.143001 -1.1411 2.66718
RightShoulder  -2.8424 17.2135 -25.3018
RightArm  -87.9673 31.6865 -20.0415
RightForeArm  13.2429 31.8794 6.26979
RightHand  -0.205377 4.15798 -2.77066
LeftUpLeg  -15.6129 32.5924 -8.78189
LeftLeg  24.5095 -9.58005 -4.39798
LeftFoot  6.5917 4.33742 -27.275
LeftToes  2.52163e-011 5.65494e-011 -1.09494e-012
